<svg width="82" height="24" viewBox="0 0 82 24" fill="none" xmlns="http://www.w3.org/2000/svg">
<path d="M7.58319 14.9863V21.0769C7.58319 21.3104 7.49044 21.5343 7.32533 21.6993C7.16031 21.8644 6.9364 21.9572 6.70288 21.9572C6.46946 21.9572 6.24555 21.8644 6.08043 21.6993C5.91532 21.5343 5.82258 21.3104 5.82258 21.0769V14.9947C6.06771 15.1737 6.36154 15.2737 6.66498 15.2811C6.9957 15.2906 7.31977 15.1865 7.58319 14.9863ZM15.0806 13.2257C14.8572 13.2257 14.6428 13.3145 14.4849 13.4724C14.3269 13.6304 14.2382 13.8447 14.2382 14.0681V15.1295C14.2382 15.363 14.3309 15.5869 14.496 15.752C14.661 15.9171 14.885 16.0098 15.1185 16.0098C15.352 16.0098 15.5759 15.9171 15.7409 15.752C15.906 15.5869 15.9988 15.363 15.9988 15.1295V14.1102C16.0053 13.9894 15.9858 13.8686 15.9415 13.7561C15.8972 13.6435 15.8292 13.5418 15.742 13.4579C15.6549 13.374 15.5507 13.3098 15.4366 13.2697C15.3225 13.2297 15.201 13.2147 15.0806 13.2257ZM3.91033 17.2945C3.6072 17.2854 3.31376 17.1857 3.06792 17.0081V23.1155C3.06792 23.3501 3.16111 23.5751 3.327 23.741C3.49287 23.9068 3.71785 24 3.95245 24C4.18704 24 4.41202 23.9068 4.5779 23.741C4.74378 23.5751 4.83697 23.3501 4.83697 23.1155V17.0502C4.56188 17.228 4.23731 17.3136 3.91033 17.2945ZM12.3343 11.3977C12.2202 11.392 12.1061 11.4096 11.999 11.4493C11.8919 11.4891 11.794 11.5502 11.7112 11.629C11.6285 11.7079 11.5627 11.8026 11.5177 11.9077C11.4728 12.0127 11.4496 12.1259 11.4498 12.2401V16.9323C11.4498 17.1669 11.543 17.3919 11.7089 17.5577C11.8748 17.7236 12.0997 17.8168 12.3343 17.8168C12.5689 17.8168 12.7939 17.7236 12.9598 17.5577C13.1257 17.3919 13.2189 17.1669 13.2189 16.9323V12.2991C13.2256 12.1775 13.2059 12.0559 13.1611 11.9427C13.1163 11.8295 13.0475 11.7273 12.9594 11.6432C12.8713 11.5592 12.7661 11.4951 12.6509 11.4557C12.5358 11.4162 12.4134 11.4021 12.2922 11.4145L12.3343 11.3977ZM9.53756 13.2004C9.22023 13.1982 8.91141 13.0982 8.65304 12.914V19.0383C8.65304 19.2729 8.74621 19.4979 8.91208 19.6637C9.07803 19.8296 9.30295 19.9228 9.53756 19.9228C9.77217 19.9228 9.99709 19.8296 10.163 19.6637C10.3289 19.4979 10.4221 19.2729 10.4221 19.0383V12.9224C10.1549 13.1215 9.82861 13.2253 9.49544 13.2173L9.53756 13.2004ZM1.99808 17.8926V0.783433C1.99586 0.57488 1.91145 0.375635 1.76319 0.228948C1.61493 0.0822605 1.41478 -8.42336e-06 1.20622 6.46875e-10H1.02089C0.81233 -8.42336e-06 0.612184 0.0822605 0.463921 0.228948C0.315659 0.375635 0.23125 0.57488 0.229034 0.783433V17.8926C0.229034 18.1026 0.312466 18.304 0.460964 18.4525C0.609463 18.6011 0.810881 18.6844 1.02089 18.6844H1.20622C1.41624 18.6844 1.61765 18.6011 1.76615 18.4525C1.91465 18.304 1.99808 18.1026 1.99808 17.8926ZM4.00299 16.6458H3.81766C3.60765 16.6458 3.40623 16.5624 3.25774 16.4139C3.10924 16.2654 3.02581 16.064 3.02581 15.854V2.82204C3.02803 2.6135 3.11243 2.41424 3.26069 2.26756C3.40895 2.12087 3.6091 2.0386 3.81766 2.03861H4.00299C4.21155 2.0386 4.4117 2.12087 4.55996 2.26756C4.70822 2.41424 4.79263 2.6135 4.79485 2.82204V15.8708C4.79485 16.0808 4.71142 16.2823 4.56292 16.4308C4.41442 16.5793 4.213 16.6627 4.00299 16.6627V16.6458ZM6.79134 14.6409H6.59758C6.38985 14.6409 6.19054 14.5584 6.04362 14.4115C5.89671 14.2645 5.81415 14.0653 5.81415 13.8575V4.8438C5.81306 4.74021 5.83252 4.63743 5.87135 4.54141C5.91019 4.44538 5.96772 4.35803 6.04059 4.28438C6.11346 4.21074 6.20022 4.15228 6.29584 4.11238C6.39145 4.07249 6.49397 4.05194 6.59758 4.05195H6.79134C6.99991 4.05417 7.19914 4.13857 7.3458 4.28683C7.49255 4.4351 7.57477 4.63524 7.57477 4.8438V13.8575C7.57477 14.0653 7.49221 14.2645 7.3453 14.4115C7.19838 14.5584 6.99916 14.6409 6.79134 14.6409ZM9.57968 12.577H9.40278C9.1942 12.577 8.99405 12.4948 8.84578 12.3481C8.69752 12.2014 8.61311 12.0022 8.61092 11.7936V6.94138C8.60401 6.83322 8.61935 6.7248 8.65608 6.62279C8.69272 6.52086 8.75 6.42743 8.82422 6.3485C8.89843 6.26948 8.98806 6.20664 9.08764 6.16368C9.18712 6.1208 9.29436 6.09873 9.40278 6.09898H9.58811C9.79812 6.09898 9.99954 6.18238 10.1481 6.33089C10.2966 6.47941 10.38 6.68083 10.38 6.89084V11.7768C10.3811 11.8815 10.3614 11.9853 10.3221 12.0824C10.2828 12.1794 10.2247 12.2677 10.151 12.3422C10.0774 12.4166 9.98976 12.4756 9.89306 12.516C9.79643 12.5563 9.69282 12.577 9.58811 12.577H9.57968ZM12.3765 10.7659H12.1911C11.9811 10.7659 11.7797 10.6825 11.6312 10.534C11.4827 10.3855 11.3993 10.184 11.3993 9.97403V8.71885C11.4015 8.51027 11.4859 8.31104 11.6341 8.16438C11.7824 8.01763 11.9825 7.93542 12.1911 7.93542H12.3765C12.585 7.93542 12.7852 8.01763 12.9334 8.16438C13.0817 8.31104 13.1661 8.51027 13.1683 8.71885V9.97403C13.1683 10.1826 13.0861 10.3828 12.9393 10.531C12.7927 10.6793 12.5935 10.7637 12.3849 10.7659H12.3765Z" fill="#94A3B8"/>
<path d="M26.2276 15.9697L28.7764 5.20313H30.2002L30.5254 6.99609L27.8096 18H26.2803L26.2276 15.9697ZM24.918 5.20313L27.0274 15.9697L26.8516 18H25.1465L22.3076 5.20313H24.918ZM32.7666 15.9258L34.8496 5.20313H37.46L34.6299 18H32.9248L32.7666 15.9258ZM31 5.20313L33.5664 16.0137L33.4961 18H31.9668L29.2334 6.98731L29.585 5.20313H31ZM43.709 7.3916L40.2285 18H37.4248L42.1797 5.20313H43.9639L43.709 7.3916ZM46.6006 18L43.1114 7.3916L42.8301 5.20313H44.6319L49.4131 18H46.6006ZM46.4424 13.2363V15.3018H39.6836V13.2363H46.4424ZM54.4932 15.3281L57.5078 5.20313H60.4434L55.9873 18H54.0537L54.4932 15.3281ZM51.7158 5.20313L54.7217 15.3281L55.1787 18H53.2276L48.7979 5.20313H51.7158ZM70.2256 15.9434V18H63.4141V15.9434H70.2256ZM64.2754 5.20313V18H61.6387V5.20313H64.2754ZM69.3379 10.415V12.4189H63.4141V10.415H69.3379ZM70.2168 5.20313V7.26856H63.4141V5.20313H70.2168ZM78.4258 14.6514C78.4258 14.4229 78.3907 14.2178 78.3203 14.0361C78.2559 13.8486 78.1328 13.6787 77.9512 13.5264C77.7696 13.3682 77.5147 13.2129 77.1865 13.0605C76.8584 12.9082 76.4336 12.75 75.9121 12.5859C75.3321 12.3984 74.7813 12.1875 74.2598 11.9531C73.7442 11.7188 73.2871 11.4463 72.8887 11.1357C72.4961 10.8193 72.1856 10.4531 71.9571 10.0371C71.7344 9.62109 71.6231 9.1377 71.6231 8.58692C71.6231 8.05371 71.7403 7.57031 71.9746 7.13672C72.209 6.69727 72.5371 6.32227 72.959 6.01172C73.3809 5.69531 73.8789 5.45215 74.4532 5.28223C75.0332 5.11231 75.669 5.02735 76.3604 5.02735C77.3037 5.02735 78.127 5.19727 78.8301 5.53711C79.5332 5.87695 80.0782 6.34277 80.4649 6.93457C80.8574 7.52637 81.0537 8.20313 81.0537 8.96484H78.4346C78.4346 8.58984 78.3555 8.26172 78.1973 7.98047C78.0449 7.69336 77.8106 7.46777 77.4942 7.30371C77.1836 7.13965 76.791 7.05762 76.3164 7.05762C75.8594 7.05762 75.4785 7.12793 75.1739 7.26856C74.8692 7.40332 74.6407 7.58789 74.4883 7.82227C74.336 8.05078 74.2598 8.30859 74.2598 8.5957C74.2598 8.8125 74.3125 9.00879 74.418 9.18457C74.5293 9.36035 74.6934 9.52441 74.9102 9.67676C75.127 9.8291 75.3936 9.97266 75.71 10.1074C76.0264 10.2422 76.3926 10.374 76.8086 10.5029C77.5059 10.7139 78.1182 10.9512 78.6455 11.2148C79.1787 11.4785 79.624 11.7744 79.9815 12.1025C80.3389 12.4307 80.6084 12.8027 80.7901 13.2188C80.9717 13.6348 81.0625 14.1064 81.0625 14.6338C81.0625 15.1904 80.9541 15.6885 80.7373 16.1279C80.5205 16.5674 80.2071 16.9395 79.7969 17.2441C79.3867 17.5488 78.8975 17.7803 78.3291 17.9385C77.7608 18.0967 77.125 18.1758 76.4219 18.1758C75.7891 18.1758 75.1651 18.0937 74.5498 17.9297C73.9346 17.7598 73.375 17.5049 72.8711 17.165C72.3731 16.8252 71.9746 16.3916 71.6758 15.8643C71.377 15.3369 71.2276 14.7129 71.2276 13.9922H73.8731C73.8731 14.3906 73.9346 14.7275 74.0576 15.0029C74.1807 15.2783 74.3535 15.501 74.5762 15.6709C74.8047 15.8408 75.0742 15.9639 75.3848 16.04C75.7012 16.1162 76.0469 16.1543 76.4219 16.1543C76.8789 16.1543 77.2539 16.0898 77.5469 15.9609C77.8457 15.832 78.0655 15.6533 78.2061 15.4248C78.3526 15.1963 78.4258 14.9385 78.4258 14.6514Z" fill="#94A3B8"/>
</svg>
