<svg width="132" height="24" viewBox="0 0 132 24" fill="none" xmlns="http://www.w3.org/2000/svg">
<path d="M17.0451 19.8633L0.985664 8.78553C-0.641767 7.66298 -0.0885482 5.32566 1.94082 4.77602L19.0091 0.14348C19.3707 0.0130174 19.7581 -0.0293334 20.1394 0.0199461C20.5206 0.0692256 20.8845 0.208712 21.2011 0.426831C21.5175 0.644949 21.7775 0.935407 21.9592 1.2741C22.1409 1.61279 22.2393 1.98994 22.2461 2.37426L21.2346 18.0837C21.1146 19.9484 18.6726 20.9859 17.0451 19.8633Z" fill="#94A3B8"/>
<path d="M11.9516 22.5977L2.49043 4.09535C2.27416 3.67207 2.17899 3.19728 2.21541 2.72335C2.25184 2.24941 2.41845 1.79475 2.69686 1.40949C2.97528 1.02423 3.35468 0.723344 3.79323 0.540012C4.23179 0.35668 4.71246 0.298028 5.18223 0.370529L22.7161 3.07664C23.1197 3.13895 23.5028 3.29619 23.834 3.53542C24.165 3.77467 24.4345 4.08907 24.6205 4.45279C24.8063 4.81651 24.9032 5.21915 24.9032 5.62762C24.9031 6.03608 24.806 6.43871 24.6201 6.80236L16.5429 22.5986C16.326 23.0207 15.997 23.3748 15.5919 23.622C15.1868 23.8692 14.7215 23.9999 14.247 23.9998C13.7724 23.9997 13.3071 23.8689 12.9022 23.6215C12.4972 23.3741 12.1683 23.0199 11.9516 22.5977Z" fill="#94A3B8"/>
<path d="M17.7187 6.5452L14.3521 6L10.2187 7.17758L11.8685 10.5642L15.732 13.3614C15.8172 13.4225 15.911 13.4692 16.0099 13.5L17.4773 10.4889L17.7187 6.5452Z" fill="white"/>
<path d="M38.7079 14.6514C38.7079 14.4229 38.6727 14.2178 38.6024 14.0361C38.538 13.8486 38.4149 13.6787 38.2333 13.5264C38.0516 13.3682 37.7968 13.2129 37.4686 13.0605C37.1405 12.9082 36.7157 12.75 36.1942 12.5859C35.6141 12.3984 35.0634 12.1875 34.5419 11.9531C34.0262 11.7188 33.5692 11.4463 33.1708 11.1357C32.7782 10.8193 32.4677 10.4531 32.2391 10.0371C32.0165 9.62109 31.9052 9.1377 31.9052 8.58692C31.9052 8.05371 32.0223 7.57031 32.2567 7.13672C32.4911 6.69727 32.8192 6.32227 33.2411 6.01172C33.663 5.69531 34.161 5.45215 34.7352 5.28223C35.3153 5.11231 35.951 5.02735 36.6425 5.02735C37.5858 5.02735 38.4091 5.19727 39.1122 5.53711C39.8153 5.87695 40.3602 6.34277 40.7469 6.93457C41.1395 7.52637 41.3358 8.20313 41.3358 8.96484H38.7167C38.7167 8.58984 38.6376 8.26172 38.4794 7.98047C38.327 7.69336 38.0927 7.46777 37.7762 7.30371C37.4657 7.13965 37.0731 7.05762 36.5985 7.05762C36.1415 7.05762 35.7606 7.12793 35.4559 7.26856C35.1512 7.40332 34.9227 7.58789 34.7704 7.82227C34.618 8.05078 34.5419 8.30859 34.5419 8.5957C34.5419 8.8125 34.5946 9.00879 34.7001 9.18457C34.8114 9.36035 34.9755 9.52441 35.1923 9.67676C35.4091 9.8291 35.6757 9.97266 35.9921 10.1074C36.3085 10.2422 36.6747 10.374 37.0907 10.5029C37.788 10.7139 38.4003 10.9512 38.9276 11.2148C39.4608 11.4785 39.9061 11.7744 40.2635 12.1025C40.621 12.4307 40.8905 12.8027 41.0721 13.2188C41.2538 13.6348 41.3446 14.1064 41.3446 14.6338C41.3446 15.1904 41.2362 15.6885 41.0194 16.1279C40.8026 16.5674 40.4891 16.9395 40.079 17.2441C39.6688 17.5488 39.1796 17.7803 38.6112 17.9385C38.0428 18.0967 37.4071 18.1758 36.704 18.1758C36.0712 18.1758 35.4471 18.0937 34.8319 17.9297C34.2167 17.7598 33.6571 17.5049 33.1532 17.165C32.6552 16.8252 32.2567 16.3916 31.9579 15.8643C31.6591 15.3369 31.5096 14.7129 31.5096 13.9922H34.1552C34.1552 14.3906 34.2167 14.7275 34.3397 15.0029C34.4628 15.2783 34.6356 15.501 34.8583 15.6709C35.0868 15.8408 35.3563 15.9639 35.6669 16.04C35.9833 16.1162 36.329 16.1543 36.704 16.1543C37.161 16.1543 37.536 16.0898 37.829 15.9609C38.1278 15.832 38.3475 15.6533 38.4882 15.4248C38.6346 15.1963 38.7079 14.9385 38.7079 14.6514ZM45.5106 10.459V18H42.9706V8.49024H45.3524L45.5106 10.459ZM45.1591 12.9111H44.4559C44.4559 12.249 44.535 11.6396 44.6932 11.083C44.8573 10.5205 45.0946 10.0342 45.4052 9.62402C45.7216 9.20801 46.1112 8.88574 46.5741 8.65723C47.037 8.42871 47.5731 8.31445 48.1825 8.31445C48.6044 8.31445 48.9911 8.37891 49.3426 8.50781C49.6942 8.63086 49.996 8.82715 50.2479 9.09668C50.5057 9.36035 50.705 9.70606 50.8456 10.1338C50.9862 10.5557 51.0565 11.0625 51.0565 11.6543V18H48.5253V11.9355C48.5253 11.502 48.4667 11.168 48.3495 10.9336C48.2323 10.6992 48.0653 10.5352 47.8485 10.4414C47.6376 10.3477 47.3827 10.3008 47.0839 10.3008C46.7557 10.3008 46.4686 10.3682 46.2225 10.5029C45.9823 10.6377 45.7831 10.8252 45.6249 11.0654C45.4667 11.2998 45.3495 11.5752 45.2733 11.8916C45.1971 12.208 45.1591 12.5479 45.1591 12.9111ZM50.8192 12.6211L49.9139 12.7354C49.9139 12.1143 49.9901 11.5371 50.1425 11.0039C50.3007 10.4707 50.5321 10.002 50.8368 9.59766C51.1473 9.19336 51.5311 8.87988 51.9882 8.65723C52.4452 8.42871 52.9725 8.31445 53.5702 8.31445C54.0272 8.31445 54.4432 8.38184 54.8182 8.5166C55.1932 8.64551 55.5126 8.85352 55.7762 9.14063C56.0458 9.42188 56.2509 9.79102 56.3915 10.248C56.538 10.7051 56.6112 11.2646 56.6112 11.9268V18H54.0712V11.9268C54.0712 11.4873 54.0126 11.1533 53.8954 10.9248C53.7841 10.6904 53.62 10.5293 53.4032 10.4414C53.1923 10.3477 52.9403 10.3008 52.6473 10.3008C52.3426 10.3008 52.076 10.3623 51.8475 10.4854C51.619 10.6025 51.4286 10.7666 51.2762 10.9775C51.1239 11.1885 51.0096 11.4346 50.9335 11.7158C50.8573 11.9912 50.8192 12.293 50.8192 12.6211ZM63.704 15.8555V11.6191C63.704 11.3145 63.6542 11.0537 63.5546 10.8369C63.455 10.6143 63.2997 10.4414 63.0887 10.3184C62.8837 10.1953 62.6171 10.1338 62.2889 10.1338C62.0077 10.1338 61.7645 10.1836 61.5594 10.2832C61.3544 10.377 61.1962 10.5146 61.0848 10.6963C60.9735 10.8721 60.9178 11.0801 60.9178 11.3203H58.3866C58.3866 10.916 58.4803 10.5322 58.6678 10.1689C58.8553 9.80566 59.1278 9.48633 59.4852 9.21094C59.8426 8.92969 60.2675 8.70996 60.7596 8.55176C61.2577 8.39356 61.8143 8.31445 62.4296 8.31445C63.1678 8.31445 63.8241 8.4375 64.3983 8.68359C64.9725 8.92969 65.4237 9.29883 65.7518 9.79102C66.0858 10.2832 66.2528 10.8984 66.2528 11.6367V15.7061C66.2528 16.2275 66.285 16.6553 66.3495 16.9893C66.4139 17.3174 66.5077 17.6045 66.6307 17.8506V18H64.0731C63.9501 17.7422 63.8563 17.4199 63.7919 17.0332C63.7333 16.6406 63.704 16.248 63.704 15.8555ZM64.038 12.208L64.0555 13.6406H62.6405C62.3065 13.6406 62.0165 13.6787 61.7704 13.7549C61.5243 13.8311 61.3221 13.9395 61.1639 14.0801C61.0057 14.2148 60.8885 14.373 60.8124 14.5547C60.7421 14.7363 60.7069 14.9355 60.7069 15.1523C60.7069 15.3691 60.7567 15.5654 60.8563 15.7412C60.9559 15.9111 61.0995 16.0459 61.287 16.1455C61.4745 16.2393 61.6942 16.2861 61.9462 16.2861C62.327 16.2861 62.6581 16.21 62.9393 16.0576C63.2206 15.9053 63.4374 15.7178 63.5897 15.4951C63.7479 15.2725 63.83 15.0615 63.8358 14.8623L64.5038 15.9346C64.41 16.1748 64.2811 16.4238 64.1171 16.6816C63.9589 16.9395 63.7567 17.1826 63.5106 17.4111C63.2645 17.6338 62.9686 17.8184 62.6229 17.9648C62.2772 18.1055 61.8671 18.1758 61.3925 18.1758C60.7889 18.1758 60.2411 18.0557 59.7489 17.8154C59.2626 17.5693 58.8759 17.2324 58.5887 16.8047C58.3075 16.3711 58.1669 15.8789 58.1669 15.3281C58.1669 14.8301 58.2606 14.3877 58.4481 14.001C58.6356 13.6143 58.911 13.2891 59.2743 13.0254C59.6434 12.7559 60.1034 12.5537 60.6542 12.4189C61.205 12.2783 61.8436 12.208 62.5702 12.208H64.038ZM70.7352 10.5645V18H68.204V8.49024H70.5858L70.7352 10.5645ZM73.6005 8.42871L73.5565 10.7754C73.4335 10.7578 73.2841 10.7432 73.1083 10.7314C72.9384 10.7139 72.7831 10.7051 72.6425 10.7051C72.285 10.7051 71.9745 10.752 71.7108 10.8457C71.453 10.9336 71.2362 11.0654 71.0604 11.2412C70.8905 11.417 70.7616 11.6309 70.6737 11.8828C70.5917 12.1348 70.5448 12.4219 70.5331 12.7441L70.0233 12.5859C70.0233 11.9707 70.0848 11.4053 70.2079 10.8896C70.3309 10.3682 70.5096 9.91406 70.744 9.52734C70.9842 9.14063 71.2772 8.8418 71.6229 8.63086C71.9686 8.41992 72.3641 8.31445 72.8094 8.31445C72.9501 8.31445 73.0936 8.32617 73.2401 8.34961C73.3866 8.36719 73.5067 8.39356 73.6005 8.42871ZM79.8934 8.49024V10.2832H74.3563V8.49024H79.8934ZM75.7274 6.14356H78.2587V15.1348C78.2587 15.4102 78.2938 15.6211 78.3641 15.7676C78.4403 15.9141 78.5516 16.0166 78.6981 16.0752C78.8446 16.1279 79.0292 16.1543 79.2518 16.1543C79.41 16.1543 79.5507 16.1484 79.6737 16.1367C79.8026 16.1191 79.911 16.1016 79.9989 16.084L80.0077 17.9473C79.7909 18.0176 79.5565 18.0732 79.3046 18.1143C79.0526 18.1553 78.7743 18.1758 78.4696 18.1758C77.913 18.1758 77.4266 18.085 77.0106 17.9033C76.6005 17.7158 76.2841 17.417 76.0614 17.0068C75.8387 16.5967 75.7274 16.0576 75.7274 15.3896V6.14356ZM84.1298 5.20313V18H81.493V5.20313H84.1298ZM89.2274 10.6699V12.7266H83.4091V10.6699H89.2274ZM89.8426 5.20313V7.26856H83.4091V5.20313H89.8426ZM93.8856 8.49024V18H91.3456V8.49024H93.8856ZM91.1874 6.01172C91.1874 5.64258 91.3163 5.33789 91.5741 5.09766C91.8319 4.85742 92.1776 4.73731 92.6112 4.73731C93.0389 4.73731 93.3817 4.85742 93.6395 5.09766C93.9032 5.33789 94.035 5.64258 94.035 6.01172C94.035 6.38086 93.9032 6.68555 93.6395 6.92578C93.3817 7.16602 93.0389 7.28613 92.6112 7.28613C92.1776 7.28613 91.8319 7.16602 91.5741 6.92578C91.3163 6.68555 91.1874 6.38086 91.1874 6.01172ZM98.4559 10.5205V18H95.9247V8.49024H98.2977L98.4559 10.5205ZM98.0868 12.9111H97.4012C97.4012 12.208 97.4921 11.5752 97.6737 11.0127C97.8553 10.4443 98.1102 9.96094 98.4383 9.5625C98.7665 9.1582 99.1561 8.85059 99.6073 8.63965C100.064 8.42285 100.574 8.31445 101.137 8.31445C101.582 8.31445 101.989 8.37891 102.358 8.50781C102.727 8.63672 103.044 8.8418 103.307 9.12305C103.577 9.4043 103.782 9.77637 103.923 10.2393C104.069 10.7021 104.142 11.2676 104.142 11.9355V18H101.594V11.9268C101.594 11.5049 101.535 11.1768 101.418 10.9424C101.301 10.708 101.128 10.5439 100.899 10.4502C100.677 10.3506 100.401 10.3008 100.073 10.3008C99.7333 10.3008 99.4374 10.3682 99.1854 10.5029C98.9393 10.6377 98.7342 10.8252 98.5702 11.0654C98.412 11.2998 98.2919 11.5752 98.2098 11.8916C98.1278 12.208 98.0868 12.5479 98.0868 12.9111ZM111.683 15.9258V4.5H114.232V18H111.938L111.683 15.9258ZM105.672 13.3594V13.1748C105.672 12.4482 105.754 11.7891 105.918 11.1973C106.082 10.5996 106.322 10.0869 106.639 9.65918C106.955 9.23145 107.345 8.90039 107.807 8.66602C108.27 8.43164 108.798 8.31445 109.39 8.31445C109.946 8.31445 110.432 8.43164 110.849 8.66602C111.27 8.90039 111.628 9.23438 111.921 9.66797C112.22 10.0957 112.46 10.6025 112.641 11.1885C112.823 11.7686 112.955 12.4043 113.037 13.0957V13.5C112.955 14.1621 112.823 14.7773 112.641 15.3457C112.46 15.9141 112.22 16.4121 111.921 16.8398C111.628 17.2617 111.27 17.5898 110.849 17.8242C110.427 18.0586 109.934 18.1758 109.372 18.1758C108.78 18.1758 108.253 18.0557 107.79 17.8154C107.333 17.5752 106.946 17.2383 106.63 16.8047C106.319 16.3711 106.082 15.8613 105.918 15.2754C105.754 14.6895 105.672 14.0508 105.672 13.3594ZM108.203 13.1748V13.3594C108.203 13.752 108.232 14.1182 108.291 14.458C108.355 14.7979 108.458 15.0996 108.599 15.3633C108.745 15.6211 108.932 15.8232 109.161 15.9697C109.395 16.1104 109.68 16.1807 110.014 16.1807C110.447 16.1807 110.805 16.084 111.086 15.8906C111.367 15.6914 111.581 15.4189 111.727 15.0732C111.88 14.7275 111.968 14.3291 111.991 13.8779V12.7266C111.974 12.3574 111.921 12.0264 111.833 11.7334C111.751 11.4346 111.628 11.1797 111.464 10.9688C111.306 10.7578 111.106 10.5938 110.866 10.4766C110.632 10.3594 110.353 10.3008 110.031 10.3008C109.703 10.3008 109.422 10.377 109.187 10.5293C108.953 10.6758 108.763 10.8779 108.616 11.1357C108.475 11.3936 108.37 11.6982 108.3 12.0498C108.235 12.3955 108.203 12.7705 108.203 13.1748ZM120.587 18.1758C119.849 18.1758 119.186 18.0586 118.6 17.8242C118.015 17.584 117.516 17.2529 117.106 16.8311C116.702 16.4092 116.391 15.9199 116.175 15.3633C115.958 14.8008 115.849 14.2031 115.849 13.5703V13.2188C115.849 12.498 115.952 11.8389 116.157 11.2412C116.362 10.6436 116.655 10.125 117.036 9.68555C117.423 9.24609 117.891 8.90918 118.442 8.67481C118.993 8.43457 119.614 8.31445 120.306 8.31445C120.979 8.31445 121.577 8.42578 122.099 8.64844C122.62 8.87109 123.057 9.1875 123.408 9.59766C123.765 10.0078 124.035 10.5 124.217 11.0742C124.398 11.6426 124.489 12.2754 124.489 12.9727V14.0273H116.931V12.3398H122.002V12.1465C122.002 11.7949 121.937 11.4814 121.808 11.2061C121.685 10.9248 121.498 10.7021 121.246 10.5381C120.994 10.374 120.672 10.292 120.279 10.292C119.945 10.292 119.658 10.3652 119.418 10.5117C119.178 10.6582 118.981 10.8633 118.829 11.127C118.682 11.3906 118.571 11.7012 118.495 12.0586C118.425 12.4102 118.39 12.7969 118.39 13.2188V13.5703C118.39 13.9512 118.442 14.3027 118.548 14.625C118.659 14.9473 118.814 15.2256 119.014 15.46C119.219 15.6943 119.465 15.876 119.752 16.0049C120.045 16.1338 120.376 16.1982 120.745 16.1982C121.202 16.1982 121.627 16.1104 122.019 15.9346C122.418 15.7529 122.761 15.4805 123.048 15.1172L124.278 16.4531C124.079 16.7402 123.807 17.0156 123.461 17.2793C123.121 17.543 122.711 17.7598 122.23 17.9297C121.75 18.0937 121.202 18.1758 120.587 18.1758ZM128.462 10.5645V18H125.931V8.49024H128.312L128.462 10.5645ZM131.327 8.42871L131.283 10.7754C131.16 10.7578 131.011 10.7432 130.835 10.7314C130.665 10.7139 130.51 10.7051 130.369 10.7051C130.012 10.7051 129.701 10.752 129.437 10.8457C129.18 10.9336 128.963 11.0654 128.787 11.2412C128.617 11.417 128.488 11.6309 128.4 11.8828C128.318 12.1348 128.271 12.4219 128.26 12.7441L127.75 12.5859C127.75 11.9707 127.811 11.4053 127.934 10.8896C128.057 10.3682 128.236 9.91406 128.471 9.52734C128.711 9.14063 129.004 8.8418 129.349 8.63086C129.695 8.41992 130.091 8.31445 130.536 8.31445C130.677 8.31445 130.82 8.32617 130.967 8.34961C131.113 8.36719 131.233 8.39356 131.327 8.42871Z" fill="#94A3B8"/>
</svg>
