<svg width="131" height="36" viewBox="0 0 131 36" fill="none" xmlns="http://www.w3.org/2000/svg">
<path d="M1.824 35.36L0.896 30.88C2.41067 30.688 3.73333 30.4533 4.864 30.176C5.99467 29.92 6.944 29.5573 7.712 29.088C8.48 28.6187 9.056 27.9787 9.44 27.168C9.824 26.336 10.016 25.2693 10.016 23.968C10.016 22.7093 9.824 21.7067 9.44 20.96C9.056 20.2133 8.544 19.84 7.904 19.84C7.456 19.84 7.08267 20 6.784 20.32C6.48533 20.6187 6.26133 20.9813 6.112 21.408C5.984 21.8133 5.92 22.176 5.92 22.496C5.92 22.688 5.97333 22.8907 6.08 23.104C6.18667 23.3173 6.42133 23.4987 6.784 23.648C7.14667 23.7973 7.712 23.8827 8.48 23.904C9.26933 23.9253 10.336 23.8507 11.68 23.68H17.056C17.8667 23.68 18.4427 23.8933 18.784 24.32C19.1467 24.7253 19.328 25.2373 19.328 25.856C19.328 26.5173 19.104 27.072 18.656 27.52C18.208 27.9467 17.568 28.16 16.736 28.16H7.936C6.592 28.16 5.44 28 4.48 27.68C3.52 27.36 2.784 26.848 2.272 26.144C1.76 25.4187 1.504 24.4587 1.504 23.264C1.504 22.304 1.664 21.344 1.984 20.384C2.32533 19.424 2.79467 18.5493 3.392 17.76C3.98933 16.9493 4.68267 16.3093 5.472 15.84C6.28267 15.3493 7.15733 15.104 8.096 15.104C9.376 15.104 10.496 15.4987 11.456 16.288C12.416 17.0773 13.1627 18.1227 13.696 19.424C14.2507 20.7253 14.528 22.144 14.528 23.68C14.528 26.0907 14.016 28.1387 12.992 29.824C11.968 31.5093 10.5067 32.8107 8.608 33.728C6.70933 34.6667 4.448 35.2107 1.824 35.36ZM16.7812 28.16L17.1013 23.68H21.5813C22.3279 23.68 22.8933 23.6373 23.2773 23.552C23.6826 23.4667 23.9599 23.3387 24.1093 23.168C24.2586 22.976 24.3333 22.752 24.3333 22.496C24.3333 22.112 24.1626 21.664 23.8213 21.152C23.5013 20.64 23.0746 20.1067 22.5413 19.552C22.0293 18.9973 21.4853 18.4427 20.9093 17.888C20.3333 17.312 19.7786 16.7787 19.2453 16.288C18.7333 15.7973 18.3066 15.3707 17.9653 15.008C17.6453 14.624 17.4853 14.3467 17.4853 14.176C17.4853 13.5787 17.5173 13.1093 17.5813 12.768C17.6453 12.4053 17.7306 12.1173 17.8372 11.904C17.9653 11.6907 18.1039 11.5093 18.2533 11.36C18.6159 10.9973 19.1599 10.592 19.8853 10.144C20.6106 9.67467 21.4639 9.184 22.4453 8.672C23.4479 8.13867 24.5679 7.584 25.8053 7.008C27.0426 6.41067 28.3546 5.792 29.7413 5.152L31.5653 9.056C30.1573 9.67467 28.8986 10.2507 27.7893 10.784C26.7013 11.296 25.7199 11.776 24.8453 12.224C23.9919 12.6507 23.2239 13.056 22.5413 13.44C21.8799 13.824 21.2826 14.1867 20.7493 14.528L21.0693 12.16C21.9866 12.9493 22.8186 13.696 23.5653 14.4C24.3119 15.104 25.0053 15.808 25.6453 16.512C26.2853 17.216 26.8826 17.9413 27.4373 18.688C28.0133 19.4347 28.5679 20.2453 29.1013 21.12C29.5706 21.8667 30.0506 22.4213 30.5413 22.784C31.0533 23.1467 31.5439 23.392 32.0133 23.52C32.5039 23.6267 32.9413 23.68 33.3253 23.68C34.1359 23.68 34.7119 23.8933 35.0533 24.32C35.4159 24.7253 35.5972 25.2373 35.5972 25.856C35.5972 26.5173 35.3733 27.072 34.9253 27.52C34.4773 27.9467 33.8373 28.16 33.0053 28.16C32.3013 28.16 31.5439 28.0427 30.7333 27.808C29.9226 27.552 29.1653 27.1467 28.4613 26.592C27.7573 26.0373 27.2239 25.28 26.8613 24.32L28.5893 24.448C28.2693 25.1307 27.8853 25.7173 27.4373 26.208C27.0106 26.6773 26.4986 27.0613 25.9013 27.36C25.3039 27.6373 24.6213 27.84 23.8533 27.968C23.0853 28.096 22.2213 28.16 21.2613 28.16H16.7812ZM33.0312 28.16L33.3513 23.68C34.1193 23.68 34.7806 23.6053 35.3353 23.456C35.8899 23.3067 36.3593 23.008 36.7433 22.56C37.1273 22.0907 37.4473 21.408 37.7033 20.512C37.9806 19.616 38.2259 18.4213 38.4393 16.928L42.6313 17.632C42.5886 17.952 42.5246 18.3253 42.4392 18.752C42.3753 19.1787 42.3113 19.616 42.2473 20.064C42.2046 20.4907 42.1833 20.896 42.1833 21.28C42.1833 21.664 42.2579 22.0053 42.4073 22.304C42.5566 22.6027 42.7913 22.8587 43.1113 23.072C43.4526 23.264 43.8899 23.4133 44.4233 23.52C44.9779 23.6267 45.6499 23.68 46.4393 23.68C47.2499 23.68 47.8259 23.8933 48.1673 24.32C48.5086 24.7253 48.6793 25.2373 48.6793 25.856C48.6793 26.5173 48.4553 27.072 48.0073 27.52C47.5806 27.9467 46.9513 28.16 46.1193 28.16C45.1593 28.16 44.2846 28.0853 43.4953 27.936C42.7273 27.7867 42.0553 27.5413 41.4792 27.2C40.9246 26.8373 40.4659 26.368 40.1033 25.792C39.7619 25.1947 39.5486 24.4693 39.4633 23.616H40.9993C40.6153 24.64 40.1246 25.4613 39.5273 26.08C38.9513 26.6773 38.3006 27.1253 37.5753 27.424C36.8499 27.7227 36.0926 27.9147 35.3033 28C34.5353 28.1067 33.7779 28.16 33.0312 28.16ZM41.9593 35.584C41.3406 35.584 40.8073 35.36 40.3593 34.912C39.9326 34.4853 39.7193 33.9733 39.7193 33.376C39.7193 32.7573 39.9326 32.224 40.3593 31.776C40.8073 31.328 41.3406 31.104 41.9593 31.104C42.5566 31.104 43.0686 31.328 43.4953 31.776C43.9219 32.224 44.1353 32.7573 44.1353 33.376C44.1353 33.9733 43.9219 34.4853 43.4953 34.912C43.0686 35.36 42.5566 35.584 41.9593 35.584ZM36.4233 35.584C35.8046 35.584 35.2713 35.36 34.8233 34.912C34.3966 34.4853 34.1833 33.9733 34.1833 33.376C34.1833 32.7573 34.3966 32.224 34.8233 31.776C35.2713 31.328 35.8046 31.104 36.4233 31.104C37.0206 31.104 37.5326 31.328 37.9593 31.776C38.3859 32.224 38.5993 32.7573 38.5993 33.376C38.5993 33.9733 38.3859 34.4853 37.9593 34.912C37.5326 35.36 37.0206 35.584 36.4233 35.584ZM46.125 28.16L46.445 23.712C47.277 23.7333 48.045 23.7227 48.749 23.68C49.453 23.6373 50.0823 23.5733 50.637 23.488C51.213 23.4027 51.7143 23.3067 52.141 23.2C52.589 23.0933 52.9623 22.9973 53.261 22.912C53.9863 22.6773 54.605 22.4 55.117 22.08C55.629 21.7387 56.0237 21.3547 56.301 20.928C56.5783 20.5013 56.717 20.0427 56.717 19.552C56.717 19.168 56.6317 18.784 56.461 18.4C56.3117 17.9947 56.0877 17.664 55.789 17.408C55.4903 17.152 55.1383 17.024 54.733 17.024C54.349 17.024 53.997 17.1413 53.677 17.376C53.357 17.6107 53.101 17.9307 52.909 18.336C52.717 18.72 52.621 19.168 52.621 19.68C52.621 20.128 52.7277 20.5547 52.941 20.96C53.1543 21.344 53.453 21.7173 53.837 22.08C54.221 22.4427 54.6797 22.784 55.213 23.104L50.957 24.736C50.4877 24.288 50.0397 23.808 49.613 23.296C49.2077 22.784 48.8663 22.208 48.589 21.568C48.333 20.9067 48.205 20.1707 48.205 19.36C48.205 18.3787 48.397 17.4827 48.781 16.672C49.165 15.8613 49.677 15.168 50.317 14.592C50.957 13.9947 51.6717 13.536 52.461 13.216C53.2503 12.896 54.0397 12.736 54.829 12.736C56.109 12.736 57.2183 13.0347 58.157 13.632C59.0957 14.2293 59.821 15.008 60.333 15.968C60.8663 16.928 61.133 17.9733 61.133 19.104C61.133 20.1493 60.941 21.088 60.557 21.92C60.173 22.7307 59.6503 23.456 58.989 24.096C58.349 24.7147 57.6343 25.2587 56.845 25.728C56.077 26.1973 55.2983 26.592 54.509 26.912C54.125 27.0827 53.645 27.2427 53.069 27.392C52.493 27.5413 51.8423 27.68 51.117 27.808C50.3917 27.9147 49.613 28 48.781 28.064C47.949 28.128 47.0637 28.16 46.125 28.16ZM63.021 28.16C61.7837 28.16 60.5677 28.096 59.373 27.968C58.1783 27.84 57.069 27.648 56.045 27.392C55.0423 27.136 54.1677 26.8267 53.421 26.464L55.629 23.008C56.269 23.1787 57.0157 23.3173 57.869 23.424C58.7437 23.5093 59.6503 23.5733 60.589 23.616C61.549 23.6587 62.4663 23.68 63.341 23.68C64.1517 23.68 64.7277 23.8933 65.069 24.32C65.4317 24.7253 65.613 25.2373 65.613 25.856C65.613 26.5173 65.389 27.072 64.941 27.52C64.493 27.9467 63.853 28.16 63.021 28.16ZM54.861 9.76C54.1997 9.76 53.6343 9.536 53.165 9.088C52.717 8.64 52.493 8.08533 52.493 7.424C52.493 6.76267 52.717 6.19733 53.165 5.728C53.6343 5.25867 54.1997 5.024 54.861 5.024C55.501 5.024 56.045 5.25867 56.493 5.728C56.9623 6.19733 57.197 6.76267 57.197 7.424C57.197 8.08533 56.9623 8.64 56.493 9.088C56.045 9.536 55.501 9.76 54.861 9.76ZM63.0625 28.16L63.3825 23.68C64.1505 23.68 64.8118 23.6053 65.3665 23.456C65.9212 23.3067 66.3905 23.008 66.7745 22.56C67.1585 22.0907 67.4785 21.408 67.7345 20.512C68.0118 19.616 68.2572 18.4213 68.4705 16.928L72.6625 17.632C72.6198 17.952 72.5558 18.3253 72.4705 18.752C72.4065 19.1787 72.3425 19.616 72.2785 20.064C72.2358 20.4907 72.2145 20.896 72.2145 21.28C72.2145 21.664 72.2892 22.0053 72.4385 22.304C72.5878 22.6027 72.8225 22.8587 73.1425 23.072C73.4838 23.264 73.9212 23.4133 74.4545 23.52C75.0092 23.6267 75.6812 23.68 76.4705 23.68C77.2812 23.68 77.8572 23.8933 78.1985 24.32C78.5398 24.7253 78.7105 25.2373 78.7105 25.856C78.7105 26.5173 78.4865 27.072 78.0385 27.52C77.6118 27.9467 76.9825 28.16 76.1505 28.16C75.1905 28.16 74.3158 28.0853 73.5265 27.936C72.7585 27.7867 72.0865 27.5413 71.5105 27.2C70.9558 26.8373 70.4972 26.368 70.1345 25.792C69.7932 25.1947 69.5798 24.4693 69.4945 23.616H71.0305C70.6465 24.64 70.1558 25.4613 69.5585 26.08C68.9825 26.6773 68.3318 27.1253 67.6065 27.424C66.8812 27.7227 66.1238 27.9147 65.3345 28C64.5665 28.1067 63.8092 28.16 63.0625 28.16ZM71.9905 35.584C71.3718 35.584 70.8385 35.36 70.3905 34.912C69.9638 34.4853 69.7505 33.9733 69.7505 33.376C69.7505 32.7573 69.9638 32.224 70.3905 31.776C70.8385 31.328 71.3718 31.104 71.9905 31.104C72.5878 31.104 73.0998 31.328 73.5265 31.776C73.9532 32.224 74.1665 32.7573 74.1665 33.376C74.1665 33.9733 73.9532 34.4853 73.5265 34.912C73.0998 35.36 72.5878 35.584 71.9905 35.584ZM66.4545 35.584C65.8358 35.584 65.3025 35.36 64.8545 34.912C64.4278 34.4853 64.2145 33.9733 64.2145 33.376C64.2145 32.7573 64.4278 32.224 64.8545 31.776C65.3025 31.328 65.8358 31.104 66.4545 31.104C67.0518 31.104 67.5638 31.328 67.9905 31.776C68.4172 32.224 68.6305 32.7573 68.6305 33.376C68.6305 33.9733 68.4172 34.4853 67.9905 34.912C67.5638 35.36 67.0518 35.584 66.4545 35.584ZM76.1562 28.16L76.4763 23.68C77.2869 23.68 77.9269 23.6053 78.3963 23.456C78.8869 23.3067 79.2709 23.008 79.5483 22.56C79.8469 22.0907 80.0923 21.408 80.2843 20.512C80.4976 19.616 80.7109 18.4213 80.9243 16.928L85.1163 17.632C85.0736 17.952 85.0096 18.3253 84.9243 18.752C84.8603 19.1787 84.7963 19.616 84.7323 20.064C84.6896 20.4907 84.6683 20.896 84.6683 21.28C84.6683 21.792 84.7749 22.2293 84.9883 22.592C85.2229 22.9333 85.6283 23.2 86.2043 23.392C86.8016 23.584 87.6549 23.68 88.7643 23.68C89.5749 23.68 90.1509 23.8933 90.4923 24.32C90.8336 24.7253 91.0043 25.2373 91.0043 25.856C91.0043 26.5173 90.7803 27.072 90.3323 27.52C89.9056 27.9467 89.2763 28.16 88.4443 28.16C86.9723 28.16 85.7776 28.0213 84.8603 27.744C83.9429 27.4667 83.2603 26.9973 82.8123 26.336C82.3643 25.6747 82.0763 24.768 81.9483 23.616H83.4843C83.1003 24.64 82.6523 25.4613 82.1403 26.08C81.6283 26.6773 81.0523 27.1253 80.4123 27.424C79.7723 27.7227 79.0896 27.9147 78.3643 28C77.6603 28.1067 76.9243 28.16 76.1562 28.16ZM82.6843 13.664C82.0229 13.664 81.4576 13.44 80.9883 12.992C80.5403 12.544 80.3163 11.9893 80.3163 11.328C80.3163 10.6667 80.5403 10.1013 80.9883 9.632C81.4576 9.16267 82.0229 8.928 82.6843 8.928C83.3243 8.928 83.8683 9.16267 84.3163 9.632C84.7856 10.1013 85.0203 10.6667 85.0203 11.328C85.0203 11.9893 84.7856 12.544 84.3163 12.992C83.8683 13.44 83.3243 13.664 82.6843 13.664ZM88.5335 9.28L86.9655 6.656C88.0108 6.03733 89.0882 5.41867 90.1975 4.8C91.3068 4.16 92.5442 3.47733 93.9095 2.752C95.2962 2.00533 96.9175 1.16267 98.7735 0.223999L100.246 3.04C98.3468 3.95733 96.7042 4.77867 95.3175 5.504C93.9522 6.22933 92.7255 6.90133 91.6375 7.52C90.5708 8.11733 89.5362 8.704 88.5335 9.28ZM88.4375 28.16L88.7575 23.68H93.3335C93.7815 23.68 94.1762 23.6587 94.5175 23.616C94.8588 23.552 95.1362 23.456 95.3495 23.328C95.5842 23.2 95.7548 23.04 95.8615 22.848C95.9682 22.656 96.0215 22.432 96.0215 22.176C96.0215 21.92 95.8828 21.5147 95.6055 20.96C95.3495 20.384 94.7842 19.6907 93.9095 18.88C93.4402 18.4533 92.9282 18.0053 92.3735 17.536C91.8402 17.0453 91.3282 16.5867 90.8375 16.16C90.3468 15.712 89.9415 15.3173 89.6215 14.976C89.3015 14.6347 89.1415 14.3893 89.1415 14.24C89.1415 13.92 89.1628 13.568 89.2055 13.184C89.2482 12.8 89.3122 12.448 89.3975 12.128C89.5042 11.808 89.6428 11.5733 89.8135 11.424C90.1762 11.0827 90.7095 10.688 91.4135 10.24C92.1388 9.77067 93.0028 9.26933 94.0055 8.736C95.0082 8.18133 96.1282 7.60533 97.3655 7.008C98.6242 6.38933 99.9682 5.77066 101.398 5.152L103.222 9.056C102.048 9.568 100.939 10.0693 99.8935 10.56C98.8482 11.0293 97.8668 11.4987 96.9495 11.968C96.0535 12.416 95.2215 12.864 94.4535 13.312C93.7068 13.7387 93.0455 14.1653 92.4695 14.592L92.8855 12.224C94.6988 13.6107 96.1388 14.8587 97.2055 15.968C98.2935 17.0773 99.1042 18.0693 99.6375 18.944C100.171 19.7973 100.523 20.5653 100.694 21.248C100.864 21.9093 100.95 22.496 100.95 23.008C100.95 23.52 100.822 24.0747 100.566 24.672C100.331 25.248 99.8935 25.8027 99.2535 26.336C98.6348 26.8693 97.7602 27.3067 96.6295 27.648C95.4988 27.9893 94.0482 28.16 92.2775 28.16H88.4375ZM113.113 28.16C111.129 28.16 109.593 27.9573 108.505 27.552C107.438 27.1467 106.691 26.5173 106.265 25.664C105.838 24.7893 105.593 23.6907 105.529 22.368L104.857 4.576H109.337L110.009 20.224C110.051 21.2053 110.158 21.9413 110.329 22.432C110.499 22.9227 110.819 23.2533 111.289 23.424C111.779 23.5947 112.494 23.68 113.433 23.68C114.243 23.68 114.819 23.8933 115.161 24.32C115.523 24.7253 115.705 25.2373 115.705 25.856C115.705 26.5173 115.481 27.072 115.033 27.52C114.585 27.9467 113.945 28.16 113.113 28.16ZM113.156 28.16L113.476 23.68C113.967 23.68 114.383 23.5627 114.724 23.328C115.087 23.072 115.46 22.656 115.844 22.08C116.228 21.4827 116.676 20.6827 117.188 19.68C117.828 18.4 118.49 17.3973 119.172 16.672C119.876 15.9467 120.591 15.4347 121.316 15.136C122.063 14.816 122.81 14.656 123.556 14.656C124.495 14.656 125.37 14.8587 126.18 15.264C126.991 15.6693 127.695 16.224 128.292 16.928C128.89 17.6107 129.348 18.4 129.668 19.296C130.01 20.1707 130.18 21.0773 130.18 22.016C130.18 23.1467 129.935 24.1707 129.444 25.088C128.975 25.984 128.314 26.6987 127.46 27.232C126.628 27.744 125.668 28 124.58 28C123.663 28 122.596 27.84 121.38 27.52C120.164 27.2 118.884 26.528 117.54 25.504L119.172 21.632C120.132 22.2933 121.028 22.7733 121.86 23.072C122.714 23.3707 123.418 23.52 123.972 23.52C124.399 23.52 124.751 23.4773 125.028 23.392C125.306 23.3067 125.508 23.168 125.636 22.976C125.764 22.784 125.828 22.528 125.828 22.208C125.828 21.76 125.722 21.3013 125.508 20.832C125.295 20.3627 125.007 19.968 124.644 19.648C124.303 19.3067 123.898 19.136 123.428 19.136C122.98 19.136 122.596 19.3067 122.276 19.648C121.978 19.968 121.679 20.4373 121.38 21.056C121.103 21.6533 120.762 22.3573 120.356 23.168C119.866 24.1493 119.386 24.9707 118.916 25.632C118.447 26.272 117.946 26.784 117.412 27.168C116.9 27.5307 116.292 27.7867 115.588 27.936C114.906 28.0853 114.095 28.16 113.156 28.16Z" fill="black"/>
</svg>
